<?xml version="1.0" encoding="utf-8"?>
<!-- Generator: Adobe Illustrator 16.0.0, SVG Export Plug-In . SVG Version: 6.00 Build 0)  -->
<!DOCTYPE svg PUBLIC "-//W3C//DTD SVG 1.1//EN" "http://www.w3.org/Graphics/SVG/1.1/DTD/svg11.dtd">
<svg version="1.1" id="圖層_1" xmlns="http://www.w3.org/2000/svg" xmlns:xlink="http://www.w3.org/1999/xlink" x="0px" y="0px"
	 width="151.015px" height="50px" viewBox="0 0 151.015 50" enable-background="new 0 0 151.015 50" xml:space="preserve">
<g>
	<path d="M50.938,15.057c-0.504,1.131-1.214,2.285-2.131,3.46c-0.917,1.177-1.971,2.269-3.163,3.277
		c-1.191,1.008-2.445,1.833-3.758,2.475c-1.864,0.948-3.506,1.635-4.927,2.063c-1.421,0.428-2.758,0.749-4.011,0.962
		c-0.764,0.123-1.177,0.245-1.238,0.367c-0.978,1.528-2.001,2.941-3.071,4.24c-1.07,1.299-2.246,2.651-3.529,4.057
		c-0.917,1.008-1.421,1.604-1.513,1.788c-0.123,0.214-0.183,0.428-0.183,0.642c0,0.825,0.542,1.604,1.627,2.337
		c1.084,0.733,2.574,1.1,4.469,1.1c2.292,0,4.148-0.145,5.569-0.436c1.421-0.29,2.544-0.763,3.369-1.421
		c0.825-0.657,1.405-1.55,1.742-2.681c0.336-1.13,0.504-2.597,0.504-4.4c0-0.947-0.176-1.696-0.527-2.246
		c-0.352-0.55-0.879-1.13-1.582-1.742l-0.275-0.229c-0.153-0.152-0.229-0.259-0.229-0.321c0.03-0.03,0.076-0.046,0.138-0.046
		c0.152,0,0.413,0.046,0.779,0.138c0.55,0.153,1.092,0.42,1.627,0.802c0.534,0.383,1.031,0.864,1.49,1.444
		c0.458,0.581,0.825,1.192,1.1,1.833s0.413,1.269,0.413,1.879c0,2.598-1.039,4.606-3.117,6.027
		c-2.079,1.421-5.058,2.131-8.938,2.131c-1.437,0-2.697-0.061-3.782-0.183c-1.085-0.122-2.032-0.298-2.842-0.527
		c-0.81-0.229-1.528-0.496-2.154-0.802c-0.626-0.305-1.306-0.688-2.04-1.146c-0.123,0-0.489,0.153-1.1,0.458
		c-1.253,0.612-2.552,1.131-3.896,1.559c-1.345,0.428-2.934,0.642-4.767,0.642c-2.353,0-4.102-0.206-5.248-0.619
		s-1.719-1.107-1.719-2.085c0-1.192,0.871-2.139,2.613-2.842c1.742-0.703,4.018-1.054,6.83-1.054c0.396,0,1.115,0.031,2.154,0.091
		c1.069,0.062,1.818,0.092,2.246,0.092c0.122,0,0.527-0.428,1.215-1.283s1.421-1.811,2.2-2.865c0.779-1.054,1.489-2.055,2.131-3.002
		c0.642-0.947,0.962-1.497,0.962-1.65c0-0.03-0.016-0.046-0.046-0.046c-1.162-0.122-2.337-0.436-3.529-0.94
		c-1.192-0.504-2.277-1.168-3.254-1.994c-0.979-0.825-1.765-1.788-2.36-2.888c-0.596-1.1-0.894-2.276-0.894-3.529
		c0-2.536,0.894-4.446,2.682-5.729c1.788-1.283,4.332-1.925,7.631-1.925c2.078,0,3.805,0.397,5.18,1.191
		c0.305,0.184,0.458,0.321,0.458,0.413c-0.031,0.062-0.091,0.092-0.183,0.092c-0.123,0-0.306-0.046-0.55-0.138
		c-2.078-0.55-3.927-0.825-5.546-0.825c-2.017,0-3.644,0.626-4.881,1.879c-1.238,1.253-1.856,2.812-1.856,4.675
		c0,1.467,0.282,2.766,0.848,3.896c0.565,1.131,1.275,2.071,2.131,2.819c0.855,0.749,1.703,1.314,2.543,1.696
		c0.84,0.382,1.505,0.573,1.994,0.573c0.244,0,0.396-0.046,0.458-0.138l0.779-1.1c1.436-2.047,2.628-3.697,3.575-4.95
		c0.947-1.252,1.91-2.444,2.888-3.575c5.164-5.805,10.13-8.708,14.896-8.708c2.903,0,4.354,1.345,4.354,4.033
		C51.695,12.948,51.443,13.927,50.938,15.057z M15.577,38.089c-0.52-0.107-1.169-0.214-1.948-0.321
		c-0.779-0.106-1.536-0.19-2.269-0.252c-0.733-0.061-1.253-0.092-1.558-0.092c-1.039,0-1.772,0.168-2.2,0.504
		c-0.428,0.336-0.642,0.841-0.642,1.513c0,0.764,0.336,1.352,1.008,1.765c0.672,0.413,1.711,0.619,3.117,0.619
		c1.039,0,2.047-0.344,3.025-1.031c0.978-0.688,1.726-1.474,2.246-2.36C16.355,38.311,16.096,38.197,15.577,38.089z M48.647,14.942
		c1.054-1.879,1.581-3.384,1.581-4.515c0-1.069-0.474-1.604-1.421-1.604c-2.383,0-5.592,2.521-9.625,7.563
		c-0.52,0.642-1.085,1.391-1.696,2.246c-0.611,0.856-1.2,1.712-1.765,2.567c-0.566,0.856-1.07,1.65-1.513,2.383
		c-0.443,0.733-0.864,1.452-1.26,2.154c-0.062,0.092-0.092,0.168-0.092,0.229c0,0.306,0.321,0.458,0.962,0.458
		c1.192,0,2.78-0.504,4.767-1.512c1.986-1.009,4.018-2.582,6.096-4.721C46.271,18.571,47.593,16.821,48.647,14.942z"/>
	<path d="M61.572,31.489c0.137-0.106,0.236-0.16,0.298-0.16c0.03,0,0.046,0.031,0.046,0.091c0,0.123-0.123,0.382-0.367,0.779
		c-0.55,0.948-1.345,2.025-2.384,3.231c-1.039,1.208-2.193,2.354-3.46,3.438c-1.268,1.085-2.537,1.971-3.804,2.659
		c-1.269,0.688-2.392,1.031-3.369,1.031c-2.047,0-3.071-1.069-3.071-3.208c0-0.886,0.213-1.841,0.642-2.865
		c0.428-1.023,0.97-2.017,1.627-2.979c0.657-0.962,1.321-1.848,1.994-2.658c0.672-0.81,1.451-1.703,2.337-2.682
		c0.642-0.733,1.054-1.207,1.238-1.421c0.092-0.091,0.152-0.305,0.183-0.642c0.03-0.275,0.076-0.413,0.138-0.413h5.867
		c0.061,0,0.091,0.016,0.091,0.046c0,0.062-0.107,0.214-0.321,0.458c-0.062,0.092-0.123,0.183-0.183,0.275
		c-0.337,0.458-0.81,1.085-1.421,1.879c-0.612,0.795-1.36,1.742-2.246,2.842c-0.856,1.1-1.513,1.941-1.971,2.521
		c-1.406,1.803-2.109,3.193-2.109,4.171c0,0.672,0.351,1.008,1.054,1.008c0.336,0,0.771-0.152,1.307-0.458
		c0.534-0.305,1.107-0.718,1.719-1.238c0.611-0.519,1.207-1.046,1.788-1.582c0.58-0.534,1.39-1.291,2.429-2.269
		c1.039-1.008,1.574-1.528,1.604-1.559C61.32,31.695,61.435,31.596,61.572,31.489z M62.076,21.084
		c-0.657,0.658-1.429,0.986-2.314,0.986c-0.917,0-1.704-0.328-2.361-0.986c-0.657-0.657-0.985-1.444-0.985-2.36
		c0-0.886,0.328-1.657,0.985-2.315c0.657-0.657,1.444-0.985,2.361-0.985c0.886,0,1.657,0.329,2.314,0.985
		c0.657,0.658,0.985,1.429,0.985,2.315C63.062,19.64,62.733,20.427,62.076,21.084z"/>
	<path d="M77.729,33.551c-0.764,1.635-1.81,3.14-3.14,4.515c-1.329,1.375-2.842,2.468-4.538,3.277
		c-1.696,0.81-3.415,1.215-5.157,1.215c-1.895,0-3.285-0.244-4.171-0.733l-0.596,0.779h-5.455c0.581-1.161,1.284-2.421,2.108-3.782
		c0.825-1.359,1.688-2.688,2.59-3.987c0.901-1.299,1.78-2.544,2.636-3.736c0.855-1.191,1.817-2.49,2.887-3.896
		c1.039-1.405,1.772-2.414,2.2-3.025c0.092-0.122,0.565-0.794,1.421-2.017c1.313-1.863,2.269-3.277,2.865-4.24
		c0.596-0.962,0.894-1.642,0.894-2.04c0-0.092-0.077-0.198-0.229-0.321c-0.062-0.061-0.091-0.107-0.091-0.138H72h5.821
		c0.213,0,0.321,0.168,0.321,0.504c0,0.306-0.168,0.764-0.504,1.375c-0.337,0.611-0.818,1.352-1.444,2.223
		c-0.627,0.871-1.314,1.757-2.063,2.658c-0.75,0.902-1.536,1.826-2.361,2.773c-0.458,0.458-0.802,0.818-1.031,1.077
		c-0.229,0.26-0.344,0.42-0.344,0.481c0.061,0,0.229-0.092,0.504-0.275c1.252-0.855,2.368-1.284,3.346-1.284
		c1.284,0,2.375,0.352,3.277,1.054c0.901,0.704,1.352,1.62,1.352,2.75C78.875,30.32,78.492,31.917,77.729,33.551z M72.664,32.199
		c0.717-1.436,1.077-2.597,1.077-3.483c0-1.039-0.458-1.559-1.375-1.559c-1.253,0-3.285,1.864-6.096,5.592
		c-2.842,3.758-4.263,6.417-4.263,7.975c0,0.733,0.367,1.1,1.1,1.1c1.558,0,3.728-1.696,6.508-5.088
		C70.929,35.148,71.946,33.636,72.664,32.199z"/>
	<path d="M78.897,41.596c-0.994-0.642-1.49-1.589-1.49-2.842c0-1.405,0.519-2.918,1.559-4.538c1.038-1.619,2.398-3.132,4.079-4.538
		c1.68-1.405,3.468-2.544,5.363-3.415c1.895-0.871,3.621-1.307,5.18-1.307c1.252,0,2.292,0.237,3.117,0.71
		c0.825,0.474,1.237,1.154,1.237,2.04c0,1.039-0.39,2.063-1.168,3.071c-0.779,1.008-1.788,1.902-3.025,2.682
		c-1.237,0.779-2.544,1.391-3.919,1.833c-1.375,0.443-2.628,0.665-3.758,0.665c-0.612,0-0.917-0.107-0.917-0.321
		c0-0.275,0.29-0.412,0.871-0.412c1.986,0,4.018-0.993,6.096-2.979c0.947-0.917,1.665-1.818,2.154-2.704
		c0.488-0.886,0.733-1.666,0.733-2.338c0-1.008-0.52-1.513-1.559-1.513c-0.948,0-2.047,0.55-3.3,1.65
		c-1.253,1.1-2.46,2.483-3.621,4.148c-1.162,1.666-2.116,3.3-2.865,4.904c-0.749,1.604-1.123,2.835-1.123,3.69
		c0,0.52,0.282,0.939,0.848,1.26c0.565,0.321,1.245,0.481,2.04,0.481c1.833,0,4.141-0.932,6.921-2.796
		c0.488-0.305,1.084-0.733,1.788-1.283c0.703-0.55,1.398-1.107,2.085-1.673c0.688-0.565,1.398-1.153,2.131-1.765
		c0.733-0.611,1.451-1.237,2.154-1.879c0.642-0.519,1.023-0.84,1.146-0.962c0.428-0.336,0.688-0.504,0.779-0.504l0.046,0.045
		c0,0.153-0.321,0.566-0.963,1.238c-3.27,3.454-6.371,6.027-9.305,7.723c-2.933,1.696-6.02,2.56-9.259,2.59
		C81.242,42.558,79.89,42.237,78.897,41.596z"/>
	<path d="M117.193,31.512c0.184-0.183,0.351-0.344,0.504-0.481c0.152-0.137,0.259-0.206,0.321-0.206c0.03,0,0.046,0.031,0.046,0.092
		c0,0.122-0.123,0.428-0.367,0.917c-0.458,1.008-1.223,2.131-2.292,3.369c-1.07,1.237-2.269,2.422-3.598,3.552
		c-1.329,1.131-2.62,2.047-3.873,2.75c-1.253,0.703-2.308,1.054-3.163,1.054c-0.764,0-1.337-0.236-1.719-0.71
		c-0.382-0.474-0.573-1.062-0.573-1.765c0-1.283,0.917-2.963,2.75-5.042c2.047-2.353,3.804-4.324,5.271-5.913
		c0.184-0.184,0.275-0.321,0.275-0.413c0-0.061-0.046-0.092-0.137-0.092c-0.153,0-0.337,0.062-0.55,0.184
		c-0.183,0.091-0.626,0.367-1.329,0.825c-1.039,0.704-1.956,1.276-2.75,1.719c-0.795,0.443-1.482,0.665-2.063,0.665
		c-0.55,0-1.008-0.122-1.375-0.367s-0.55-0.58-0.55-1.009c0-0.55,0.252-1.191,0.756-1.925c0.504-0.733,1.123-1.436,1.856-2.108
		c0.733-0.672,1.443-1.238,2.131-1.696c0.688-0.458,1.184-0.688,1.489-0.688c0.153,0,0.275,0.214,0.367,0.642
		c0.061,0.275,0.13,0.481,0.207,0.619c0.076,0.138,0.206,0.206,0.39,0.206l0.733-0.137c0.733-0.122,1.405-0.221,2.017-0.298
		c0.611-0.076,1.146-0.115,1.604-0.115c0.886,0,1.574,0.084,2.063,0.252c0.488,0.168,0.733,0.451,0.733,0.848
		c0,0.367-0.291,0.894-0.871,1.581c-0.581,0.688-1.513,1.658-2.796,2.911c-1.62,1.62-2.873,2.957-3.759,4.011
		s-1.329,1.948-1.329,2.681c0,0.489,0.321,0.733,0.962,0.733c0.855,0,1.826-0.427,2.911-1.283c1.084-0.855,2.482-2.139,4.194-3.85
		c0.642-0.672,1.13-1.161,1.466-1.467L117.193,31.512z"/>
	<path d="M114.329,41.596c-0.994-0.642-1.49-1.589-1.49-2.842c0-1.405,0.519-2.918,1.559-4.538c1.038-1.619,2.398-3.132,4.079-4.538
		c1.68-1.405,3.468-2.544,5.363-3.415c1.895-0.871,3.621-1.307,5.18-1.307c1.252,0,2.292,0.237,3.117,0.71
		c0.825,0.474,1.237,1.154,1.237,2.04c0,1.039-0.39,2.063-1.168,3.071c-0.779,1.008-1.788,1.902-3.025,2.682
		c-1.237,0.779-2.544,1.391-3.919,1.833c-1.375,0.443-2.628,0.665-3.758,0.665c-0.612,0-0.917-0.107-0.917-0.321
		c0-0.275,0.29-0.412,0.871-0.412c1.986,0,4.018-0.993,6.096-2.979c0.947-0.917,1.665-1.818,2.154-2.704
		c0.488-0.886,0.733-1.666,0.733-2.338c0-1.008-0.52-1.513-1.559-1.513c-0.948,0-2.047,0.55-3.3,1.65
		c-1.253,1.1-2.46,2.483-3.621,4.148c-1.162,1.666-2.116,3.3-2.865,4.904c-0.749,1.604-1.123,2.835-1.123,3.69
		c0,0.52,0.282,0.939,0.848,1.26c0.565,0.321,1.245,0.481,2.04,0.481c1.833,0,4.141-0.932,6.921-2.796
		c0.488-0.305,1.084-0.733,1.788-1.283c0.703-0.55,1.398-1.107,2.085-1.673c0.688-0.565,1.398-1.153,2.131-1.765
		c0.733-0.611,1.451-1.237,2.154-1.879c0.642-0.519,1.023-0.84,1.146-0.962c0.428-0.336,0.688-0.504,0.779-0.504l0.046,0.045
		c0,0.153-0.321,0.566-0.963,1.238c-3.27,3.454-6.371,6.027-9.305,7.723c-2.933,1.696-6.02,2.56-9.259,2.59
		C116.673,42.558,115.321,42.237,114.329,41.596z"/>
	<path d="M147.398,24.957c0.122,0,0.183,0.031,0.183,0.092c0,0.031-0.091,0.092-0.275,0.184c-1.162,0.489-2.04,0.97-2.635,1.444
		c-0.596,0.474-0.894,1.108-0.894,1.902c0,0.306,0.076,0.71,0.229,1.215c0.153,0.504,0.397,1.214,0.733,2.131
		c0.397,1.07,0.703,1.964,0.917,2.681c0.213,0.718,0.321,1.337,0.321,1.856c0,0.948-0.206,1.803-0.619,2.567
		c-0.413,0.764-0.971,1.406-1.673,1.925c-0.703,0.52-1.482,0.917-2.337,1.191c-0.856,0.275-1.727,0.413-2.613,0.413
		c-1.253,0-2.314-0.229-3.186-0.688c-0.871-0.458-1.306-0.962-1.306-1.513c0-0.367,0.106-0.703,0.321-1.008
		c0.213-0.305,0.534-0.458,0.962-0.458c0.397,0,0.649,0.107,0.756,0.321c0.107,0.214,0.161,0.535,0.161,0.963
		c0,1.1,0.642,1.65,1.925,1.65c0.886,0,1.643-0.29,2.269-0.871c0.626-0.581,0.939-1.345,0.939-2.292c0-0.611-0.183-1.261-0.55-1.948
		s-0.887-1.535-1.559-2.543c-0.55-0.825-0.947-1.459-1.191-1.902c-0.245-0.443-0.367-0.832-0.367-1.169
		c0-0.917,0.275-1.749,0.825-2.498c0.55-0.749,1.284-1.382,2.2-1.902c0.917-0.52,1.902-0.924,2.957-1.215
		c1.054-0.29,2.07-0.465,3.048-0.527C147.124,24.957,147.276,24.957,147.398,24.957z"/>
</g>
<g>
</g>
<g>
</g>
<g>
</g>
<g>
</g>
<g>
</g>
<g>
</g>
</svg>
